<svg xmlns="http://www.w3.org/2000/svg" width="512" height="512" viewBox="0 0 512 512">
<defs>
<linearGradient id="sky" x1="0" y1="0" x2="0" y2="1">
<stop offset="0" stop-color="#10173a"/><stop offset="0.5" stop-color="#3a3568"/>
<stop offset="0.8" stop-color="#9a5f70"/><stop offset="1" stop-color="#f0a866"/></linearGradient>
<radialGradient id="sun" cx="50%" cy="86%" r="60%">
<stop offset="0" stop-color="#ffd79a"/><stop offset="0.5" stop-color="#f0a866"/><stop offset="1" stop-color="#f0a86600"/></radialGradient>
</defs>
<rect width="512" height="512" rx="112" fill="url(#sky)"/>
<rect width="512" height="512" rx="112" fill="url(#sun)"/>
<path d="M343.6 192.1 L355.2 198.6 L352.6 185.5" fill="none" stroke="#0a0a14" stroke-width="2.4" stroke-linecap="round" stroke-linejoin="round"/><path d="M209.5 171.3 L221.3 155.7 L201.8 156.9" fill="none" stroke="#0a0a14" stroke-width="3.5" stroke-linecap="round" stroke-linejoin="round"/><path d="M292.2 256.1 L294.2 272.1 L305.1 260.3" fill="none" stroke="#0a0a14" stroke-width="2.9" stroke-linecap="round" stroke-linejoin="round"/><path d="M232.6 165.6 L247.6 157.6 L231.8 151.5" fill="none" stroke="#0a0a14" stroke-width="3.1" stroke-linecap="round" stroke-linejoin="round"/><path d="M163.7 259.5 L158.2 244.4 L150.4 258.4" fill="none" stroke="#0a0a14" stroke-width="2.9" stroke-linecap="round" stroke-linejoin="round"/><path d="M190.5 280.7 L176.0 271.6 L178.5 288.5" fill="none" stroke="#0a0a14" stroke-width="3.1" stroke-linecap="round" stroke-linejoin="round"/><path d="M152.7 354.7 L138.8 346.4 L141.5 362.4" fill="none" stroke="#0a0a14" stroke-width="2.9" stroke-linecap="round" stroke-linejoin="round"/><path d="M286.3 244.6 L286.1 260.2 L298.1 250.2" fill="none" stroke="#0a0a14" stroke-width="2.8" stroke-linecap="round" stroke-linejoin="round"/><path d="M308.0 157.9 L325.4 167.3 L321.2 147.9" fill="none" stroke="#0a0a14" stroke-width="3.6" stroke-linecap="round" stroke-linejoin="round"/><path d="M357.5 207.3 L374.7 214.7 L369.1 196.9" fill="none" stroke="#0a0a14" stroke-width="3.4" stroke-linecap="round" stroke-linejoin="round"/><path d="M189.1 203.8 L193.7 191.3 L181.2 196.0" fill="none" stroke="#0a0a14" stroke-width="2.4" stroke-linecap="round" stroke-linejoin="round"/><path d="M323.0 336.4 L312.9 348.3 L328.5 348.2" fill="none" stroke="#0a0a14" stroke-width="2.8" stroke-linecap="round" stroke-linejoin="round"/><path d="M282.8 236.6 L286.4 256.0 L298.7 240.6" fill="none" stroke="#0a0a14" stroke-width="3.6" stroke-linecap="round" stroke-linejoin="round"/><path d="M180.7 270.1 L169.0 258.0 L167.4 274.8" fill="none" stroke="#0a0a14" stroke-width="3.1" stroke-linecap="round" stroke-linejoin="round"/><path d="M225.7 365.9 L210.7 368.7 L222.6 378.2" fill="none" stroke="#0a0a14" stroke-width="2.8" stroke-linecap="round" stroke-linejoin="round"/><path d="M372.7 303.0 L362.1 318.9 L381.1 316.6" fill="none" stroke="#0a0a14" stroke-width="3.5" stroke-linecap="round" stroke-linejoin="round"/><path d="M326.1 177.9 L343.8 182.1 L335.4 165.9" fill="none" stroke="#0a0a14" stroke-width="3.3" stroke-linecap="round" stroke-linejoin="round"/><path d="M183.2 222.5 L184.8 201.8 L168.0 214.1" fill="none" stroke="#0a0a14" stroke-width="3.8" stroke-linecap="round" stroke-linejoin="round"/><path d="M295.7 264.4 L285.1 276.9 L301.5 276.8" fill="none" stroke="#0a0a14" stroke-width="3.0" stroke-linecap="round" stroke-linejoin="round"/><path d="M217.7 275.6 L201.6 274.8 L211.4 287.5" fill="none" stroke="#0a0a14" stroke-width="2.9" stroke-linecap="round" stroke-linejoin="round"/><path d="M372.4 223.0 L383.2 233.5 L384.1 218.5" fill="none" stroke="#0a0a14" stroke-width="2.7" stroke-linecap="round" stroke-linejoin="round"/><path d="M86.5 251.1 L78.5 244.2 L78.4 254.8" fill="none" stroke="#0a0a14" stroke-width="2.4" stroke-linecap="round" stroke-linejoin="round"/><path d="M279.9 234.2 L295.1 251.8 L298.6 228.8" fill="none" stroke="#0a0a14" stroke-width="4.2" stroke-linecap="round" stroke-linejoin="round"/><path d="M67.1 189.8 L67.8 179.6 L59.6 185.7" fill="none" stroke="#0a0a14" stroke-width="2.4" stroke-linecap="round" stroke-linejoin="round"/><path d="M342.9 321.2 L339.9 333.6 L351.3 327.8" fill="none" stroke="#0a0a14" stroke-width="2.4" stroke-linecap="round" stroke-linejoin="round"/><path d="M81.9 224.1 L78.6 215.2 L74.0 223.4" fill="none" stroke="#0a0a14" stroke-width="2.4" stroke-linecap="round" stroke-linejoin="round"/><path d="M168.7 248.2 L162.6 226.6 L150.1 245.3" fill="none" stroke="#0a0a14" stroke-width="4.1" stroke-linecap="round" stroke-linejoin="round"/><path d="M254.5 278.4 L239.4 287.9 L256.4 293.2" fill="none" stroke="#0a0a14" stroke-width="3.2" stroke-linecap="round" stroke-linejoin="round"/><path d="M290.7 347.4 L283.5 359.4 L297.3 357.0" fill="none" stroke="#0a0a14" stroke-width="2.5" stroke-linecap="round" stroke-linejoin="round"/><path d="M223.6 290.9 L203.6 289.3 L215.3 305.6" fill="none" stroke="#0a0a14" stroke-width="3.6" stroke-linecap="round" stroke-linejoin="round"/><path d="M91.8 279.4 L82.0 272.4 L83.0 284.4" fill="none" stroke="#0a0a14" stroke-width="2.4" stroke-linecap="round" stroke-linejoin="round"/><path d="M282.6 275.6 L264.2 293.5 L289.8 295.8" fill="none" stroke="#0a0a14" stroke-width="4.7" stroke-linecap="round" stroke-linejoin="round"/><path d="M237.0 293.4 L217.2 299.3 L234.5 310.4" fill="none" stroke="#0a0a14" stroke-width="3.7" stroke-linecap="round" stroke-linejoin="round"/><path d="M288.9 262.4 L271.1 280.9 L296.7 282.3" fill="none" stroke="#0a0a14" stroke-width="4.7" stroke-linecap="round" stroke-linejoin="round"/><path d="M189.4 184.3 L202.6 171.3 L184.1 169.8" fill="none" stroke="#0a0a14" stroke-width="3.4" stroke-linecap="round" stroke-linejoin="round"/><path d="M264.4 357.0 L247.5 363.5 L263.4 372.1" fill="none" stroke="#0a0a14" stroke-width="3.3" stroke-linecap="round" stroke-linejoin="round"/><path d="M96.5 306.8 L86.8 303.5 L90.6 313.0" fill="none" stroke="#0a0a14" stroke-width="2.4" stroke-linecap="round" stroke-linejoin="round"/><path d="M399.4 243.7 L409.5 255.3 L411.8 240.1" fill="none" stroke="#0a0a14" stroke-width="2.8" stroke-linecap="round" stroke-linejoin="round"/><path d="M392.7 290.0 L394.4 304.6 L404.4 293.8" fill="none" stroke="#0a0a14" stroke-width="2.7" stroke-linecap="round" stroke-linejoin="round"/><path d="M127.0 327.6 L117.1 323.7 L120.5 333.8" fill="none" stroke="#0a0a14" stroke-width="2.4" stroke-linecap="round" stroke-linejoin="round"/><path d="M269.6 278.3 L252.1 281.6 L266.0 292.7" fill="none" stroke="#0a0a14" stroke-width="3.2" stroke-linecap="round" stroke-linejoin="round"/><path d="M396.0 260.4 L393.2 278.7 L408.8 268.9" fill="none" stroke="#0a0a14" stroke-width="3.3" stroke-linecap="round" stroke-linejoin="round"/><path d="M284.5 163.6 L301.4 155.0 L283.9 147.8" fill="none" stroke="#0a0a14" stroke-width="3.4" stroke-linecap="round" stroke-linejoin="round"/><path d="M189.0 356.3 L172.8 362.0 L187.7 370.6" fill="none" stroke="#0a0a14" stroke-width="3.1" stroke-linecap="round" stroke-linejoin="round"/><path d="M256.5 152.1 L273.5 152.4 L262.7 139.3" fill="none" stroke="#0a0a14" stroke-width="3.1" stroke-linecap="round" stroke-linejoin="round"/><path d="M166.1 231.9 L160.4 209.3 L147.0 228.3" fill="none" stroke="#0a0a14" stroke-width="4.2" stroke-linecap="round" stroke-linejoin="round"/>
</svg>